<svg width="482" height="151" viewBox="0 0 482 151" fill="none" xmlns="http://www.w3.org/2000/svg">
<g clip-path="url(#clip0_106_8759)">
<path d="M44.61 16.05L85.28 105.01H71.81L63.42 86.46L63.04 85.7H10.42L10.04 86.46L1.02 105.01H0L36.6 29.14L43.72 14.27L44.61 16.05ZM10.93 84.55H62.53L61.64 82.65L38.64 32.45L37.37 29.65L36.1 32.32L11.95 82.65L10.93 84.55Z" fill="black"/>
<path d="M141.96 62.18H176.91V88.87C173.44 93.53 169.07 97.38 163.82 100.43C163.57 100.6 163.19 100.81 162.68 101.07L162.17 101.32C155.39 104.88 147.47 106.66 138.4 106.66C128.4 106.66 119.8 104.63 112.6 100.56C105.48 96.49 100.14 90.99 96.59 84.04C93.03 77.18 91.25 69.51 91.25 61.04C91.25 52.57 93.03 44.86 96.59 37.91C100.15 31.05 105.49 25.54 112.6 21.39C119.72 17.32 128.29 15.29 138.33 15.29C148.37 15.29 156.95 17.32 164.07 21.39C169.83 24.78 174.45 29.06 177.92 34.23L174.49 37.15C171.52 31.22 167.37 26.39 162.04 22.66C156.2 18.68 149.18 16.69 141.01 16.69C132.84 16.69 125.82 18.68 119.98 22.66C114.22 26.73 109.86 32.11 106.89 38.8C103.92 45.5 102.44 52.91 102.44 61.04C102.44 69.17 103.92 76.54 106.89 83.15C109.85 89.93 114.22 95.26 119.98 99.16C125.83 103.14 132.84 105.13 141.01 105.13C149.18 105.13 156.2 103.14 162.04 99.16C162.46 98.91 163.01 98.52 163.69 98.02L164.2 97.51V63.2H141.96V62.18Z" fill="black"/>
<path d="M275.05 65.8998C274.6 71.8998 273.34 77.4898 271.2 82.6398C268.57 89.2498 264.59 94.4998 259.25 98.3998C254 102.3 247.64 104.24 240.19 104.24C232.74 104.24 226.34 102.29 221 98.3998C215.75 94.4998 211.77 89.2498 209.05 82.6398C206.42 76.1198 205.11 68.9098 205.11 61.0298C205.11 53.1498 206.42 45.8198 209.05 39.2998C211.76 32.6898 215.74 27.4398 221 23.5398C222.52 22.4098 224.13 21.4598 225.82 20.6498C225.14 19.9998 224.43 19.3098 223.71 18.5898C220.66 19.5298 217.8 20.7498 215.16 22.2698C208.21 26.2498 203 31.6298 199.53 38.4098C196.06 45.1898 194.32 52.7298 194.32 61.0298C194.32 69.3298 196.06 76.8698 199.53 83.6498C203 90.3398 208.21 95.6799 215.16 99.6599C222.11 103.64 230.45 105.63 240.2 105.63C249.95 105.63 258.03 103.62 264.98 99.5898C271.93 95.5698 277.18 90.1698 280.74 83.3898C282.29 80.4298 283.49 77.3398 284.36 74.1198C281.25 71.3898 278.14 68.6498 275.06 65.8898L275.05 65.8998Z" fill="black"/>
<path d="M419 99.6698C421.29 98.2298 423.15 96.7098 424.59 95.0998C423.66 97.2198 422.43 99.1698 420.9 100.94C418.44 103.82 415.39 106.28 411.75 108.31C410.31 109.16 407.94 109.92 404.63 110.6C401.33 111.28 397.85 111.62 394.21 111.62C390.23 111.62 386.58 111.15 383.28 110.22C376.16 108.27 367.52 104.16 357.35 97.8898C355.65 96.8698 354.47 96.1998 353.79 95.8598C352.01 94.8398 349.64 93.4398 346.67 91.6698C342.52 89.2098 339.4 87.4098 337.33 86.2698C335.25 85.1298 332.58 83.9798 329.32 82.8398C326.06 81.6998 322.77 80.9998 319.47 80.7398H313.37V105.14H301.17V16.5598H348.32C355.52 16.5598 362 18.7198 367.76 23.0398C370.13 24.8198 372.21 26.8998 373.99 29.2698C378.31 35.1198 380.47 41.5998 380.47 48.7098C380.47 54.4698 379.05 59.7898 376.21 64.6598C373.37 69.5298 369.54 73.4498 364.71 76.4198C362.08 77.9398 359.29 79.0898 356.32 79.8498C355.98 79.9398 355.43 80.0598 354.67 80.2298L354.04 80.3598C353.7 80.4498 352.77 80.4898 351.24 80.4898L346.41 80.6198H338.28L345.91 83.2898C350.23 84.7298 356.37 87.5698 364.34 91.7998C372.13 95.9498 378.28 98.8798 382.77 100.57C383.95 101.08 385.19 101.5 386.46 101.84V101.97H386.59C391.42 103.58 396.16 104.39 400.83 104.39C407.77 104.39 413.83 102.82 419 99.6898V99.6698ZM328.14 79.4698H338.31C341.7 79.2998 345 78.5798 348.22 77.3098C350.17 76.5498 351.91 75.7398 353.43 74.8898C358 72.0098 361.6 68.2798 364.23 63.7098C366.94 59.1398 368.3 54.1398 368.3 48.7098C368.3 42.9498 367.11 37.7398 364.74 33.0798C362.28 28.4198 358.68 24.7398 353.94 22.0198C349.19 19.3098 343.52 17.9498 336.91 17.9498H313.4V79.4598H328.14V79.4698ZM440.99 16.0498L481.78 105.14H468.31L459.8 86.4598L459.42 85.6998H406.81L406.56 86.4598L400.33 99.2998C399.99 99.2998 399.65 99.2598 399.31 99.1698L433.12 29.1498L440.24 14.2798L441 16.0598L440.99 16.0498ZM407.44 84.6798H458.91L458.02 82.6498L435.14 32.4498L433.87 29.7798L432.6 32.4498L408.33 82.6498L407.44 84.6798Z" fill="black"/>
<path d="M206.14 86.52L196.9 105.65C197.24 105.74 197.58 105.78 197.92 105.78L204.15 92.94L204.4 92.18H209.4C207.84 90.61 206.76 88.64 206.14 86.52Z" fill="black"/>
<path d="M205.99 86.35C205.35 84.54 204.94 82.62 204.73 80.71C204.73 81 204.34 81.52 204.21 81.79C204.01 82.21 203.8 82.64 203.6 83.06C203.21 83.87 202.82 84.69 202.42 85.5C201.64 87.13 200.85 88.76 200.07 90.39C198.67 93.3 197.26 96.2 195.86 99.11C194.81 101.29 193.78 103.48 192.7 105.65C193.04 105.74 193.38 105.78 193.72 105.78L199.95 92.94C199.95 92.94 200.2 92.19 200.2 92.18C200.36 91.71 203.14 92.09 203.54 92.11C204.7 92.18 205.86 92.18 207.01 92.18C207.45 92.18 209.07 91.85 209.38 92.19C207.85 90.51 206.74 88.5 205.98 86.35H205.99Z" fill="black"/>
<path d="M208.88 50.46C208.36 54.68 207.87 62.35 210 71.15C210.37 72.67 214.19 90.69 225.9 96.74C250.5 109.45 265.78 87.47 265.69 87.04C265.66 86.92 262.02 89.01 259.06 89.36C258.47 89.43 255.76 90.19 250.95 87.76C246.76 85.64 246.12 83.18 239.81 75.8C235.8 71.11 227.87 61.83 220.48 58.34C219.77 58 217.8 57.13 215.25 55.47C212.42 53.64 210.27 51.76 208.9 50.47L208.88 50.46Z" fill="#ED1C24"/>
<path d="M274.5 8.3V9.26H251.85V68.64H243.52V9.26H217.94V8.3H245.5C245.5 7.83 245.5 7.42 245.47 6.99C245.47 6.83 245.28 6.63 245.11 6.55C242.67 5.43 242.21 2.77 242.45 0.66C242.5 0.19 242.78 0 243.24 0C246.01 0.03 248.75 0 251.51 0.03C252.17 0.03 252.5 0.41 252.5 1.21C252.5 3.18 251.82 4.88 250.28 6.11C249.62 6.63 249.4 7.15 249.49 7.92V8.3H274.5Z" fill="black"/>
<path d="M227.83 36.8002C227.55 34.3002 227.7 32.0202 228.59 30.1802C229.82 27.6802 231.82 26.7902 234.47 27.2602C236.43 27.6002 238.26 28.9302 240.08 30.4702C241.58 31.7302 243.07 33.0102 244.58 34.1802C245.72 35.0902 246.9 35.6402 248.08 35.8602L248.78 37.3402C247.99 37.1402 247.18 37.0102 246.39 36.6602C244.48 35.8802 242.75 34.2702 241.01 32.7702C239.65 31.5802 238.29 30.3602 236.83 29.5502C234.41 28.1802 232.34 28.2402 230.66 29.7302C229.33 30.9002 228.85 32.8602 228.86 35.1602C228.88 38.9802 230.03 42.7502 231.93 46.4102C234.22 50.7602 237.25 54.0102 240.74 56.4102C244.44 58.9502 248.09 60.0402 251.7 60.1902C254.25 60.3002 256.63 59.8702 258.88 59.0902C261.21 58.2702 263.36 57.1002 265.36 55.6102C265.46 55.5402 265.57 55.4002 265.6 55.2402C265.71 54.4102 266.12 54.0402 266.78 53.9602C266.94 53.9402 267.14 53.8702 267.2 53.7102C267.33 53.3602 267.63 53.3302 267.85 53.1702C268.26 52.8702 268.66 52.5302 269.09 52.2702C269.58 51.9902 269.94 51.4602 270.39 51.1102C271.11 50.5402 271.87 50.0202 272.6 49.4902C273.9 48.5402 275.18 47.5402 276.51 46.6502C277.11 46.2602 277.81 46.1102 278.5 45.9102C278.83 45.8302 279.19 46.4102 279.09 46.8202C279.06 47.0102 279 47.2202 278.9 47.3302C278.32 47.9702 277.74 48.6502 277.1 49.1902C275.63 50.4302 274.1 51.6002 272.57 52.7602C272.21 53.0602 271.81 53.2802 271.43 53.5302C271.25 53.6702 271.07 53.8002 270.91 53.9302C270.49 54.2802 270.08 54.6302 269.66 54.9902C269.65 54.9902 269.6 54.9702 269.57 54.9902C269.07 55.3602 268.56 55.7002 268.05 56.0702C268.03 56.1002 268.02 56.1602 268.01 56.1902C267.71 56.4402 267.47 56.8402 267.12 56.8702C266.69 56.9202 266.36 57.0502 266.04 57.3002C265.88 57.4302 265.7 57.5702 265.52 57.6702C263.19 59.1602 260.76 60.3902 258.06 61.1002C256.04 61.6202 253.92 61.8702 251.7 61.7302C247.39 61.4502 243.1 59.8602 238.83 56.4502C235.83 54.0702 233.26 51.0702 231.23 47.3202C229.4 43.9402 228.22 40.4202 227.81 36.7802L227.83 36.8002Z" fill="black"/>
<path d="M155.24 139.2C155.24 134.36 151.35 130.47 146.51 130.47C141.67 130.47 137.78 134.36 137.78 139.2V150.42H135.29V127.97H137.78V132.16C139.83 129.62 142.97 127.97 146.51 127.97C152.7 127.97 157.74 133.01 157.74 139.2H155.25H155.24Z" fill="#5A0D14"/>
<path d="M170.2 127.97C176.39 127.97 181.43 133.01 181.43 139.2V141.69H161.82C162.87 145.28 166.21 147.93 170.2 147.93H181.43V150.42H170.2C164.01 150.42 158.98 145.38 158.98 139.2C158.98 133.02 164.02 127.97 170.2 127.97ZM178.93 139.2C178.93 134.36 175.04 130.47 170.2 130.47C165.36 130.47 161.47 134.36 161.47 139.2H178.93Z" fill="#5A0D14"/>
<path d="M187.66 135.45H197.64C201.78 135.45 205.12 138.79 205.12 142.93C205.12 147.07 201.78 150.41 197.64 150.41H187.66C184.92 150.41 182.67 148.16 182.67 145.42H185.16C185.16 146.82 186.26 147.91 187.65 147.91H197.63C200.37 147.91 202.62 145.66 202.62 142.92C202.62 140.18 200.37 137.93 197.63 137.93H187.65C184.91 137.93 182.66 135.68 182.66 132.94C182.66 130.2 184.91 127.95 187.65 127.95H200.12C202.86 127.95 205.11 130.2 205.11 132.94H202.62C202.62 131.54 201.52 130.45 200.13 130.45H187.66C186.26 130.45 185.17 131.55 185.17 132.94C185.17 134.33 186.27 135.43 187.66 135.43V135.45Z" fill="#5A0D14"/>
<path d="M213.85 139.2C213.85 144.04 217.74 147.93 222.58 147.93V150.42C216.39 150.42 211.36 145.38 211.36 139.2V132.96H206.37V130.47H211.36V122.99H213.85V130.47H222.58V132.96H213.85V139.2Z" fill="#5A0D14"/>
<path d="M235.05 150.42C228.86 150.42 223.83 145.38 223.83 139.2C223.83 133.02 228.87 127.97 235.05 127.97C241.23 127.97 246.28 133.01 246.28 139.2C246.28 145.39 241.24 150.42 235.05 150.42ZM235.05 147.93C239.89 147.93 243.78 144.04 243.78 139.2C243.78 134.36 239.89 130.47 235.05 130.47C230.21 130.47 226.32 134.36 226.32 139.2C226.32 144.04 230.21 147.93 235.05 147.93Z" fill="#5A0D14"/>
<path d="M259.68 136.52H268.62V138.31H265.05V147.25H263.26V145.89C262.29 146.75 261.04 147.25 259.69 147.25C256.72 147.25 254.33 144.85 254.33 141.89C254.33 139.85 255.44 138.14 257.08 137.21C256.47 136.57 256.11 135.71 256.11 134.74C256.11 132.77 257.72 131.17 259.68 131.17C261.64 131.17 263.25 132.78 263.25 134.74H261.46C261.46 133.74 260.67 132.95 259.67 132.95C258.67 132.95 257.88 133.74 257.88 134.74C257.88 135.74 258.67 136.53 259.67 136.53L259.68 136.52ZM263.26 138.3H259.69C257.72 138.3 256.12 139.91 256.12 141.87C256.12 143.83 257.73 145.44 259.69 145.44C261.65 145.44 263.26 143.83 263.26 141.87V138.3Z" fill="#5A0D14"/>
<path d="M287.89 150.42C284.35 150.42 281.21 148.77 279.16 146.23V150.42H276.67V122.98H279.16V132.16C281.21 129.62 284.35 127.97 287.89 127.97C294.08 127.97 299.12 133.01 299.12 139.2C299.12 145.39 294.08 150.42 287.89 150.42ZM287.89 130.47C283.05 130.47 279.16 134.36 279.16 139.2C279.16 144.04 283.05 147.93 287.89 147.93C292.73 147.93 296.62 144.04 296.62 139.2C296.62 134.36 292.73 130.47 287.89 130.47Z" fill="#5A0D14"/>
<path d="M311.58 127.97C315.12 127.97 318.27 129.62 320.31 132.16V127.97H322.8V150.42H320.31V146.23C318.26 148.77 315.12 150.42 311.58 150.42C305.39 150.42 300.36 145.38 300.36 139.2C300.36 133.02 305.4 127.97 311.58 127.97ZM311.58 130.47C306.74 130.47 302.85 134.36 302.85 139.2C302.85 144.04 306.74 147.93 311.58 147.93C316.42 147.93 320.31 144.04 320.31 139.2C320.31 134.36 316.42 130.47 311.58 130.47Z" fill="#5A0D14"/>
<path d="M344.01 139.2C344.01 134.36 340.12 130.47 335.28 130.47C330.44 130.47 326.55 134.36 326.55 139.2V150.42H324.06V127.97H326.55V132.16C328.6 129.62 331.74 127.97 335.28 127.97C341.47 127.97 346.51 133.01 346.51 139.2H344.02H344.01Z" fill="#5A0D14"/>
</g>
<defs>
<clipPath id="clip0_106_8759">
<rect width="481.78" height="150.42" fill="white"/>
</clipPath>
</defs>
</svg>
